<?xml version="1.0" encoding="UTF-8" standalone="no"?>
<!-- Created with Inkscape (http://www.inkscape.org/) -->

<svg
   width="256"
   height="128"
   viewBox="0 0 67.733325 33.866662"
   version="1.1"
   id="svg1"
   inkscape:version="1.3.2 (091e20ef0f, 2023-11-25, custom)"
   sodipodi:docname="cloud.svg"
   inkscape:export-filename="../../png/back/cloud.png"
   inkscape:export-xdpi="96"
   inkscape:export-ydpi="96"
   xmlns:inkscape="http://www.inkscape.org/namespaces/inkscape"
   xmlns:sodipodi="http://sodipodi.sourceforge.net/DTD/sodipodi-0.dtd"
   xmlns="http://www.w3.org/2000/svg"
   xmlns:svg="http://www.w3.org/2000/svg">
  <sodipodi:namedview
     id="namedview1"
     pagecolor="#ffffff"
     bordercolor="#000000"
     borderopacity="0.25"
     inkscape:showpageshadow="2"
     inkscape:pageopacity="0.0"
     inkscape:pagecheckerboard="0"
     inkscape:deskcolor="#d1d1d1"
     inkscape:document-units="mm"
     inkscape:zoom="1.9598766"
     inkscape:cx="103.57795"
     inkscape:cy="82.658267"
     inkscape:window-width="1440"
     inkscape:window-height="828"
     inkscape:window-x="0"
     inkscape:window-y="0"
     inkscape:window-maximized="1"
     inkscape:current-layer="layer1"
     showgrid="true">
    <inkscape:grid
       id="grid1"
       units="px"
       originx="0"
       originy="0"
       spacingx="4.2333328"
       spacingy="4.2333328"
       empcolor="#0099e5"
       empopacity="0.30196078"
       color="#0099e5"
       opacity="0.14901961"
       empspacing="5"
       dotted="false"
       gridanglex="30"
       gridanglez="30"
       visible="true" />
  </sodipodi:namedview>
  <defs
     id="defs1" />
  <g
     inkscape:label="Слой 1"
     inkscape:groupmode="layer"
     id="layer1">
    <path
       id="path29"
       style="fill:#ffffff;stroke:#000000;stroke-width:0.529167"
       d="m 33.866667,4.2333333 c -3.592803,0.00897 -6.788716,2.2845131 -7.97264,5.6766561 C 24.496877,8.9693855 22.850937,8.4668592 21.166667,8.4666667 16.490656,8.4666663 12.7,12.257322 12.7,16.933333 c 0.006,0.51957 0.05978,1.037486 0.160714,1.547193 -4.8640549,1.459182 -7.562273,3.359927 -7.5690473,5.331974 10e-7,4.38376 12.5012113,5.820832 28.5749983,5.820833 16.073787,-1e-6 29.633334,-1.437073 29.633335,-5.820833 -0.0026,-2.109558 -3.084242,-4.132057 -8.564335,-5.620846 0.06382,-0.416426 0.09646,-0.837035 0.09767,-1.258321 0,-4.676011 -3.790655,-8.4666662 -8.466666,-8.4666663 -1.677592,0.00353 -3.316322,0.5053465 -4.70824,1.4417724 C 40.671655,6.5102902 37.46609,4.2339556 33.866667,4.2333333 Z"
       sodipodi:nodetypes="ccccccscccccc" />
  </g>
</svg>
