<?xml version="1.0" encoding="UTF-8" standalone="no"?>
<!-- Created with Inkscape (http://www.inkscape.org/) -->

<svg
   width="128"
   height="128"
   viewBox="0 0 33.866666 33.866666"
   version="1.1"
   id="svg1"
   inkscape:version="1.3.2 (091e20ef0f, 2023-11-25, custom)"
   sodipodi:docname="tree.svg"
   inkscape:export-filename="../../png/back/tree.png"
   inkscape:export-xdpi="96"
   inkscape:export-ydpi="96"
   xmlns:inkscape="http://www.inkscape.org/namespaces/inkscape"
   xmlns:sodipodi="http://sodipodi.sourceforge.net/DTD/sodipodi-0.dtd"
   xmlns="http://www.w3.org/2000/svg"
   xmlns:svg="http://www.w3.org/2000/svg">
  <sodipodi:namedview
     id="namedview1"
     pagecolor="#ffffff"
     bordercolor="#000000"
     borderopacity="0.25"
     inkscape:showpageshadow="2"
     inkscape:pageopacity="0.0"
     inkscape:pagecheckerboard="0"
     inkscape:deskcolor="#d1d1d1"
     inkscape:document-units="mm"
     inkscape:zoom="2.771684"
     inkscape:cx="35.898753"
     inkscape:cy="84.064417"
     inkscape:window-width="1440"
     inkscape:window-height="828"
     inkscape:window-x="0"
     inkscape:window-y="0"
     inkscape:window-maximized="1"
     inkscape:current-layer="layer1"
     showgrid="true">
    <inkscape:grid
       id="grid1"
       units="px"
       originx="0"
       originy="0"
       spacingx="1.0583333"
       spacingy="1.0583333"
       empcolor="#0099e5"
       empopacity="0.30196078"
       color="#0099e5"
       opacity="0.14901961"
       empspacing="5"
       dotted="false"
       gridanglex="30"
       gridanglez="30"
       visible="true" />
  </sodipodi:namedview>
  <defs
     id="defs1" />
  <g
     inkscape:label="Слой 1"
     inkscape:groupmode="layer"
     id="layer1">
    <path
       style="fill:#782121;stroke:#000000;stroke-width:0.529167"
       d="m 12.699999,33.866666 2.116667,-1.058333 1.058333,-9.525 h 3.175 l 1.058333,9.525 2.116666,1.058333 z"
       id="path13"
       sodipodi:nodetypes="ccccccc" />
    <path
       id="path26"
       style="fill:#00aa00;stroke:#000000;stroke-width:0.529167"
       d="M 14.816667 1.0583333 A 4.2333331 3.7041667 0 0 0 10.934733 3.2964396 A 3.7041667 4.2333331 0 0 0 10.054167 3.175 A 3.7041667 4.2333331 0 0 0 6.35 7.4083333 A 3.7041667 4.2333331 0 0 0 6.3525838 7.4460571 A 4.7624998 4.7624998 0 0 0 2.1166667 12.170833 A 4.7624998 4.7624998 0 0 0 4.4483073 16.255855 A 3.7041667 3.7041667 0 0 0 3.175 19.05 A 3.7041667 3.7041667 0 0 0 6.8791667 22.754167 A 3.7041667 3.7041667 0 0 0 8.3669312 22.438424 A 6.3499999 5.8208332 0 0 0 8.4863037 22.498368 A 3.175 3.175 0 0 0 11.641667 25.4 A 3.175 3.175 0 0 0 13.615706 24.703402 A 4.7624998 4.2333331 0 0 0 17.4625 26.458333 A 4.7624998 4.2333331 0 0 0 21.952665 23.607861 A 4.2333331 4.2333331 0 0 0 25.4 25.4 A 4.2333331 4.2333331 0 0 0 29.633333 21.166667 A 4.2333331 4.2333331 0 0 0 28.635978 18.438668 A 4.2333331 4.2333331 0 0 0 30.691667 14.816667 A 4.2333331 4.2333331 0 0 0 30.62242 14.059607 A 4.7624998 4.7624998 0 0 0 32.808333 10.054167 A 4.7624998 4.7624998 0 0 0 28.045833 5.2916667 A 4.7624998 4.7624998 0 0 0 27.493412 5.3314575 A 4.2333331 4.7624998 0 0 0 23.283333 1.0583333 A 4.2333331 4.7624998 0 0 0 19.705257 3.2799032 A 6.3499999 3.7041667 0 0 0 18.774048 3.4499186 A 4.2333331 3.7041667 0 0 0 14.816667 1.0583333 z " />
  </g>
</svg>
