<?xml version="1.0" encoding="UTF-8" standalone="no"?>
<!-- Created with Inkscape (http://www.inkscape.org/) -->

<svg
   width="64"
   height="64"
   viewBox="0 0 16.933333 16.933333"
   version="1.1"
   id="svg1"
   inkscape:version="1.3.2 (091e20ef0f, 2023-11-25, custom)"
   sodipodi:docname="rabbit1.svg"
   inkscape:export-filename="../../png/enemy/rabbit1.png"
   inkscape:export-xdpi="96"
   inkscape:export-ydpi="96"
   xmlns:inkscape="http://www.inkscape.org/namespaces/inkscape"
   xmlns:sodipodi="http://sodipodi.sourceforge.net/DTD/sodipodi-0.dtd"
   xmlns="http://www.w3.org/2000/svg"
   xmlns:svg="http://www.w3.org/2000/svg">
  <sodipodi:namedview
     id="namedview1"
     pagecolor="#ffffff"
     bordercolor="#000000"
     borderopacity="0.25"
     inkscape:showpageshadow="2"
     inkscape:pageopacity="0.0"
     inkscape:pagecheckerboard="0"
     inkscape:deskcolor="#d1d1d1"
     inkscape:document-units="mm"
     inkscape:zoom="3.9197531"
     inkscape:cx="4.2094488"
     inkscape:cy="56.381102"
     inkscape:window-width="1440"
     inkscape:window-height="828"
     inkscape:window-x="0"
     inkscape:window-y="0"
     inkscape:window-maximized="1"
     inkscape:current-layer="layer1"
     showgrid="true">
    <inkscape:grid
       id="grid1"
       units="px"
       originx="0"
       originy="0"
       spacingx="1.0583333"
       spacingy="1.0583333"
       empcolor="#0099e5"
       empopacity="0.30196078"
       color="#0099e5"
       opacity="0.14901961"
       empspacing="5"
       dotted="false"
       gridanglex="30"
       gridanglez="30"
       visible="true" />
  </sodipodi:namedview>
  <defs
     id="defs1" />
  <g
     inkscape:label="Слой 1"
     inkscape:groupmode="layer"
     id="layer1">
    <rect
       style="fill:#ffffff;stroke-width:0.529167;stroke-linecap:round;stroke-linejoin:round"
       id="rect1"
       width="4.2333331"
       height="3.175"
       x="7.4083333"
       y="10.583333" />
    <path
       style="fill:#ffffff;stroke:#000000;stroke-width:0.529167;stroke-linecap:round;stroke-linejoin:round"
       d="m 11.641666,10.583333 v 1.543911 L 12.7,15.874999 l 1.058333,1.058334 -2.116667,0 L 10.583333,12.7"
       id="path1"
       sodipodi:nodetypes="cccccc" />
    <path
       style="fill:#ffffff;stroke:#000000;stroke-width:0.529167;stroke-linecap:round;stroke-linejoin:round"
       d="m 10.583333,12.170833 1.058334,3.704166 1.058334,1.058334 -2.116668,0 L 9.5249997,12.7"
       id="path2"
       sodipodi:nodetypes="ccccc" />
    <path
       style="fill:#ffffff;stroke:#000000;stroke-width:0.529167;stroke-linecap:round;stroke-linejoin:round"
       d="m 7.4083335,9.5249994 -1.0071564,5.0357836 -0.05118,0.255883 c 0,0 -2.116667,0 -2.116666,1.058333 1e-6,1.058333 2.116666,1.058334 2.116666,1.058334 H 10.583333 L 9.5250001,15.874999 C 9.525,14.816666 9.525,13.758333 8.4666668,13.758333 v -1.058334"
       id="path3"
       sodipodi:nodetypes="ccczccccc" />
    <path
       style="fill:#ffffff;stroke:#000000;stroke-width:0.529167"
       d="m 9.525,7.4083329 c 0,0 0,-6.3499997 2.116667,-6.3499997 2.116666,0 2.116666,1.0583333 2.116666,2.1166667 0,1.058333 -1.058333,-10e-8 -2.116666,-10e-8 -1.058334,0 -1.058334,4.2333331 -1.058334,4.2333331"
       id="path18"
       sodipodi:nodetypes="csssc" />
    <circle
       style="fill:#ffffff;stroke:#000000;stroke-width:0.529167"
       id="path16"
       cx="-9.5249996"
       cy="7.4083333"
       r="3.175"
       transform="scale(-1,1)" />
    <path
       style="fill:#ffffff;stroke:#000000;stroke-width:0.529167"
       d="m 6.3500001,7.4083328 c 0,0 0,-6.3499997 2.1166667,-6.3499997 2.1166662,0 2.1166662,1.0583333 2.1166662,2.1166667 0,1.058333 -1.058333,-1e-7 -2.1166663,-1e-7 -1.0583333,0 -1.0583332,4.2333331 -1.0583332,4.2333331"
       id="path17"
       sodipodi:nodetypes="csssc" />
    <path
       id="path19"
       style="fill:#ffffff;stroke:#000000;stroke-width:0.529167"
       d="m 11.641667,8.4666662 1.058333,3e-7 c 0.584501,2e-7 1.058333,0.473832 1.058333,1.0583333 0,0.5845012 -0.473832,1.0583332 -1.058333,1.0583332 H 9.5249998"
       sodipodi:nodetypes="csssc" />
    <ellipse
       style="fill:#000000;fill-opacity:1;stroke:#000000;stroke-width:0.529167;stroke-linecap:round;stroke-linejoin:round"
       id="path4"
       cx="10.054167"
       cy="6.8791661"
       rx="0.52916664"
       ry="0.52916652" />
    <ellipse
       style="fill:#000000;fill-opacity:1;stroke:#000000;stroke-width:0.529167;stroke-linecap:round;stroke-linejoin:round"
       id="path5"
       cx="12.170834"
       cy="6.8791666"
       rx="0.52916664"
       ry="0.5291667" />
  </g>
</svg>
