<?xml version="1.0" encoding="UTF-8" standalone="no"?>
<!-- Created with Inkscape (http://www.inkscape.org/) -->

<svg
   width="64"
   height="64"
   viewBox="0 0 16.933333 16.933333"
   version="1.1"
   id="svg1"
   inkscape:version="1.3.2 (091e20ef0f, 2023-11-25, custom)"
   sodipodi:docname="rabbit2.svg"
   inkscape:export-filename="../../png/enemy/rabbit2.png"
   inkscape:export-xdpi="96"
   inkscape:export-ydpi="96"
   xmlns:inkscape="http://www.inkscape.org/namespaces/inkscape"
   xmlns:sodipodi="http://sodipodi.sourceforge.net/DTD/sodipodi-0.dtd"
   xmlns="http://www.w3.org/2000/svg"
   xmlns:svg="http://www.w3.org/2000/svg">
  <sodipodi:namedview
     id="namedview1"
     pagecolor="#ffffff"
     bordercolor="#000000"
     borderopacity="0.25"
     inkscape:showpageshadow="2"
     inkscape:pageopacity="0.0"
     inkscape:pagecheckerboard="0"
     inkscape:deskcolor="#d1d1d1"
     inkscape:document-units="mm"
     inkscape:zoom="3.9197531"
     inkscape:cx="9.8220472"
     inkscape:cy="27.04252"
     inkscape:window-width="1440"
     inkscape:window-height="828"
     inkscape:window-x="0"
     inkscape:window-y="0"
     inkscape:window-maximized="1"
     inkscape:current-layer="layer1"
     showgrid="true">
    <inkscape:grid
       id="grid1"
       units="px"
       originx="0"
       originy="0"
       spacingx="1.0583333"
       spacingy="1.0583333"
       empcolor="#0099e5"
       empopacity="0.30196078"
       color="#0099e5"
       opacity="0.14901961"
       empspacing="5"
       dotted="false"
       gridanglex="30"
       gridanglez="30"
       visible="true" />
  </sodipodi:namedview>
  <defs
     id="defs1" />
  <g
     inkscape:label="Слой 1"
     inkscape:groupmode="layer"
     id="layer1">
    <path
       style="fill:#ffffff;stroke:#000000;stroke-width:0.529167;stroke-linecap:round;stroke-linejoin:round"
       d="M 7.4083333,10.583333 6.35,12.7 l -2e-7,3.174999 2.1166666,1.058334 -1.0583333,-2.116667 1.0583333,-1.058333 2e-7,-1.058333 -3e-7,-1.058333"
       id="path4"
       sodipodi:nodetypes="cccccccc" />
    <path
       style="fill:#ffffff;stroke:#000000;stroke-width:0.529167;stroke-linecap:round;stroke-linejoin:round"
       d="M 7.4083334,8.4666661 5.291667,11.641667 c 0,0 -2.116667,-1.058334 -2.116667,0 0,1.058334 2.116667,2.116666 2.116667,2.116666 l -5e-7,2.116666 2.1166666,1.058334 -1.0583333,-2.116667 1.0583333,-1.058333 2e-7,-1.058333 c 2.1166666,0 3.1749997,-1.058333 3.1749997,-2.116667"
       id="path3"
       sodipodi:nodetypes="cczccccccc" />
    <rect
       style="fill:#ffffff;stroke:none;stroke-width:0.529167;stroke-linecap:round;stroke-linejoin:round"
       id="rect4"
       width="3.175"
       height="3.175"
       x="-10.583333"
       y="8.4666662"
       transform="scale(-1,1)" />
    <path
       style="fill:#ffffff;stroke:#000000;stroke-width:0.529167;stroke-linecap:round;stroke-linejoin:round"
       d="m 10.583333,9.5249997 v 1.0583333 l 3.175,3.175 h 1.058333 l -1.058333,1.058333 -4.2333334,-3.174999"
       id="path1"
       sodipodi:nodetypes="cccccc" />
    <path
       style="fill:#ffffff;stroke:#000000;stroke-width:0.529167;stroke-linecap:round;stroke-linejoin:round"
       d="M 9.5249996,10.583333 12.7,13.758334 h 1.058333 L 12.7,14.816667 l -4.2333337,-3.175"
       id="path2"
       sodipodi:nodetypes="ccccc" />
    <path
       style="fill:#ffffff;stroke:#000000;stroke-width:0.529167"
       d="m 9.5249999,6.3499996 c 0,0 -10e-8,-5.2916664 2.1166671,-5.2916664 2.116666,0 2.116666,1.0583333 2.116666,2.1166667 0,1.058333 -1.058333,-10e-8 -2.116666,-10e-8 -1.058334,0 -1.058334,3.1749998 -1.058334,3.1749998"
       id="path18"
       sodipodi:nodetypes="csssc" />
    <circle
       style="fill:#ffffff;stroke:#000000;stroke-width:0.529167"
       id="path16"
       cx="-9.5249996"
       cy="6.3499999"
       r="3.175"
       transform="scale(-1,1)" />
    <path
       style="fill:#ffffff;stroke:#000000;stroke-width:0.529167"
       d="m 6.35,6.3499995 c 0,0 0,-5.2916663 2.1166667,-5.2916663 2.1166663,0 2.1166663,1.0583333 2.1166663,2.1166667 0,1.058333 -1.0583331,-10e-8 -2.1166664,-10e-8 -1.0583333,0 -1.0583332,3.1749997 -1.0583332,3.1749997"
       id="path17"
       sodipodi:nodetypes="csssc" />
    <path
       id="path19"
       style="fill:#ffffff;stroke:#000000;stroke-width:0.529167"
       d="m 11.641667,7.4083329 1.058333,3e-7 c 0.584501,2e-7 1.058333,0.473832 1.058333,1.0583333 0,0.5845012 -0.473832,1.0583332 -1.058333,1.0583332 H 9.5249997"
       sodipodi:nodetypes="csssc" />
    <circle
       style="fill:#000000;fill-opacity:1;stroke:#000000;stroke-width:0.529167;stroke-linecap:round;stroke-linejoin:round"
       id="path5"
       cx="10.054167"
       cy="5.8208332"
       r="0.52916664" />
    <circle
       style="fill:#000000;fill-opacity:1;stroke:#000000;stroke-width:0.529167;stroke-linecap:round;stroke-linejoin:round"
       id="path6"
       cx="12.170834"
       cy="5.8208332"
       r="0.52916664" />
  </g>
</svg>
