<?xml version="1.0" encoding="UTF-8" standalone="no"?>
<!-- Created with Inkscape (http://www.inkscape.org/) -->

<svg
   width="64"
   height="64"
   viewBox="0 0 16.933333 16.933333"
   version="1.1"
   id="svg1"
   inkscape:version="1.3.2 (091e20ef0f, 2023-11-25, custom)"
   sodipodi:docname="turtle2.svg"
   inkscape:export-filename="../../png/enemy/turtle2.png"
   inkscape:export-xdpi="96"
   inkscape:export-ydpi="96"
   xmlns:inkscape="http://www.inkscape.org/namespaces/inkscape"
   xmlns:sodipodi="http://sodipodi.sourceforge.net/DTD/sodipodi-0.dtd"
   xmlns="http://www.w3.org/2000/svg"
   xmlns:svg="http://www.w3.org/2000/svg">
  <sodipodi:namedview
     id="namedview1"
     pagecolor="#ffffff"
     bordercolor="#000000"
     borderopacity="0.25"
     inkscape:showpageshadow="2"
     inkscape:pageopacity="0.0"
     inkscape:pagecheckerboard="0"
     inkscape:deskcolor="#d1d1d1"
     inkscape:document-units="mm"
     inkscape:zoom="3.9197531"
     inkscape:cx="19.261417"
     inkscape:cy="52.299212"
     inkscape:window-width="1440"
     inkscape:window-height="828"
     inkscape:window-x="0"
     inkscape:window-y="0"
     inkscape:window-maximized="1"
     inkscape:current-layer="layer1"
     showgrid="true">
    <inkscape:grid
       id="grid1"
       units="px"
       originx="0"
       originy="0"
       spacingx="1.0583333"
       spacingy="0.52916666"
       empcolor="#0099e5"
       empopacity="0.30196078"
       color="#0099e5"
       opacity="0.14901961"
       empspacing="5"
       dotted="false"
       gridanglex="30"
       gridanglez="30"
       visible="true" />
  </sodipodi:namedview>
  <defs
     id="defs1" />
  <g
     inkscape:label="Слой 1"
     inkscape:groupmode="layer"
     id="layer1">
    <path
       style="fill:#00d400;stroke:#000000;stroke-width:0.529167"
       d="m 10.405219,16.933333 1.058333,-0.529167 c 0,0 4.233333,0 4.233333,-1.058333 0,-1.058333 -4.233333,-1.058333 -4.233333,-1.058333 H 0.88021994 c 0,0 2.42664596,0.839144 3.17499996,1.587499 l 1.058332,1.058334 H 7.2302192 L 6.1718859,15.874999 h 3.1749999 l -1.0583334,1.058334 z"
       id="path1"
       sodipodi:nodetypes="ccsccscccccc" />
    <circle
       style="fill:#000000;stroke:#000000;stroke-width:0.529167"
       id="path2"
       cx="-13.051052"
       cy="14.816667"
       r="0.52916664"
       transform="scale(-1,1)" />
    <path
       style="fill:#6c5353;stroke:#000000;stroke-width:0.529167"
       d="m 13.580219,14.2875 1.058333,-2.116667 -2.116666,1.058333 1.058333,-2.116666 -3.175,3.175 z"
       id="path3" />
    <path
       id="path5"
       style="fill:#2ca02c;stroke:#000000;stroke-width:0.529167"
       d="m 7.230219,4.7624995 c 2.922504,-2e-7 4.233334,4.3751601 4.233333,8.4666665 A 4.2333331,2.1166666 0 0 1 7.230219,15.345833 4.2333331,2.1166666 0 0 1 2.996886,13.229166 c 0,-4.0915067 1.310828,-8.4666664 4.233333,-8.4666665 z" />
    <path
       style="fill:#2ca02c;stroke:#000000;stroke-width:0.529167"
       d="m 8.2885526,6.879166 c 0,0 1.058333,3.175 1.0583331,5.291666 l 2e-7,3.175"
       id="path7"
       sodipodi:nodetypes="csc" />
    <path
       style="fill:#2ca02c;stroke:#000000;stroke-width:0.529167"
       d="m 6.171886,6.879166 c 0,0 -1.058333,3.175 -1.058333,5.291666 v 3.175"
       id="path8"
       sodipodi:nodetypes="csc" />
    <path
       style="fill:none;stroke:#000000;stroke-width:0.529167"
       d="m 11.463553,10.054166 c 0,0 -1.058334,2.116666 -4.2333337,2.116666 -3.1750003,0 -4.2333333,-2.116666 -4.2333333,-2.116666"
       id="path9"
       sodipodi:nodetypes="czc" />
    <ellipse
       style="fill:#2ca02c;stroke:#000000;stroke-width:0.529167"
       id="path6"
       cx="-7.2302194"
       cy="6.3499994"
       rx="2.1166666"
       ry="1.5875"
       transform="scale(-1,1)" />
  </g>
</svg>
