<?xml version="1.0" encoding="UTF-8" standalone="no"?>
<!-- Created with Inkscape (http://www.inkscape.org/) -->

<svg
   width="64"
   height="64"
   viewBox="0 0 16.933333 16.933333"
   version="1.1"
   id="svg1"
   inkscape:version="1.3.2 (091e20ef0f, 2023-11-25, custom)"
   sodipodi:docname="turtle2.svg"
   inkscape:export-filename="../../png/enemy/turtle2.png"
   inkscape:export-xdpi="96"
   inkscape:export-ydpi="96"
   xmlns:inkscape="http://www.inkscape.org/namespaces/inkscape"
   xmlns:sodipodi="http://sodipodi.sourceforge.net/DTD/sodipodi-0.dtd"
   xmlns="http://www.w3.org/2000/svg"
   xmlns:svg="http://www.w3.org/2000/svg">
  <sodipodi:namedview
     id="namedview1"
     pagecolor="#ffffff"
     bordercolor="#000000"
     borderopacity="0.25"
     inkscape:showpageshadow="2"
     inkscape:pageopacity="0.0"
     inkscape:pagecheckerboard="0"
     inkscape:deskcolor="#d1d1d1"
     inkscape:document-units="mm"
     inkscape:zoom="3.9197531"
     inkscape:cx="19.261417"
     inkscape:cy="52.299212"
     inkscape:window-width="1440"
     inkscape:window-height="828"
     inkscape:window-x="0"
     inkscape:window-y="0"
     inkscape:window-maximized="1"
     inkscape:current-layer="layer1"
     showgrid="true">
    <inkscape:grid
       id="grid1"
       units="px"
       originx="0"
       originy="0"
       spacingx="1.0583333"
       spacingy="0.52916666"
       empcolor="#0099e5"
       empopacity="0.30196078"
       color="#0099e5"
       opacity="0.14901961"
       empspacing="5"
       dotted="false"
       gridanglex="30"
       gridanglez="30"
       visible="true" />
  </sodipodi:namedview>
  <defs
     id="defs1" />
  <g
     inkscape:label="Слой 1"
     inkscape:groupmode="layer"
     id="layer1">
    <path
       style="fill:#ffffff;stroke:#000000;stroke-width:0.529167"
       d="m 10.405219,16.933333 1.058333,-0.529167 c 0,0 4.233333,0 4.233333,-1.058333 0,-1.058333 -4.233333,-1.058333 -4.233333,-1.058333 H 0.88021994 c 0,0 2.42664596,0.839144 3.17499996,1.587499 l 1.058332,1.058334 H 7.2302192 L 6.1718859,15.874999 h 3.1749999 l -1.0583334,1.058334 z"
       id="path1"
       sodipodi:nodetypes="ccsccscccccc" />
    <circle
       style="fill:#000000;stroke:#000000;stroke-width:0.529167"
       id="path2"
       cx="-13.051052"
       cy="14.816667"
       r="0.52916664"
       transform="scale(-1,1)" />
    <path
       style="fill:#ffffff;stroke:#000000;stroke-width:0.529167"
       d="m 13.580219,14.2875 1.058333,-2.116667 -2.116666,1.058333 1.058333,-2.116666 -3.175,3.175 z"
       id="path3" />
    <g
       id="g9"
       transform="matrix(-1,0,0,1,16.755219,0.52916623)">
      <path
         id="path5"
         style="fill:#ffffff;stroke:#000000;stroke-width:0.529167"
         d="M 9.525,4.2333333 C 6.6024959,4.2333331 5.2916664,8.6084934 5.2916667,12.7 A 4.2333331,2.1166666 0 0 0 9.525,14.816667 4.2333331,2.1166666 0 0 0 13.758333,12.7 c 0,-4.0915069 -1.310828,-8.4666666 -4.233333,-8.4666667 z" />
      <path
         style="fill:none;stroke:#000000;stroke-width:0.529167"
         d="m 8.4666664,6.3499998 c 0,0 -1.058333,3.1749998 -1.0583331,5.2916662 l -2e-7,3.175"
         id="path7"
         sodipodi:nodetypes="csc" />
      <path
         style="fill:none;stroke:#000000;stroke-width:0.529167"
         d="m 10.583333,6.3499998 c 0,0 1.058333,3.1749998 1.058333,5.2916662 v 3.175"
         id="path8"
         sodipodi:nodetypes="csc" />
      <path
         style="fill:none;stroke:#000000;stroke-width:0.529167"
         d="m 5.2916664,9.525 c 0,0 1.0583334,2.116666 4.2333333,2.116666 C 12.7,11.641666 13.758333,9.525 13.758333,9.525"
         id="path9"
         sodipodi:nodetypes="czc" />
      <ellipse
         style="fill:#ffffff;stroke:#000000;stroke-width:0.529167"
         id="path6"
         cx="9.5249996"
         cy="5.8208332"
         rx="2.1166666"
         ry="1.5875" />
    </g>
  </g>
</svg>
